<svg width="1129" height="1129" viewBox="0 0 1129 1129" fill="none" xmlns="http://www.w3.org/2000/svg">
<circle cx="564" cy="564" r="478" stroke="#0B274D" stroke-width="66"/>
<circle cx="564.5" cy="564.5" r="536.5" stroke="#0B274D" stroke-width="56"/>
<circle cx="564.5" cy="564.5" r="437.5" stroke="#0083A4" stroke-width="36"/>
<circle cx="564.5" cy="564.5" r="412.5" stroke="#15E8DE" stroke-width="36"/>
<path d="M1005 572.63C1005 329.073 807.558 123 564 123C320.442 123 123 320.442 123 564C123 807.558 320.442 1005 564 1005" stroke="#F9FFFE" stroke-width="142"/>
<circle cx="564.5" cy="563.5" r="392.5" fill="#15E8DE" stroke="#0B274D" stroke-width="36"/>
<path d="M624 740.5C696.274 717 742 735 850.5 679.5C959 624 944.5 662 944.5 662L897 780L850.5 837L786 890.5L712 929L657.774 948.5L605.5 961.5H553H501L451.5 948.5L403.5 929L334 890.5L291.274 852C291.274 852 318.226 820 433.5 837C548.774 854 551.726 764 624 740.5Z" fill="#0083A4"/>
<path d="M363 223.5L512.5 174L680.5 188.5L781.5 242.5L863.5 319.5L918 419.5L745 426.5L709.772 485H172L249 319.5L363 223.5Z" fill="#0B274D"/>
<circle cx="564.5" cy="563.5" r="392.5" stroke="#0B274D" stroke-width="36"/>
<path d="M525 387C525 395.284 518.284 402 510 402C501.716 402 495 395.284 495 387C495 378.716 501.716 372 510 372C518.284 372 525 378.716 525 387Z" fill="#15E8DE"/>
<circle cx="714.5" cy="856.5" r="17" stroke="#F9FFFE" stroke-width="15"/>
<circle cx="649.5" cy="805.5" r="17" stroke="#F9FFFE" stroke-width="15"/>
<circle cx="444.5" cy="289.5" r="17" stroke="#F9FFFE" stroke-width="15"/>
<circle cx="588.5" cy="356.5" r="17" stroke="#F9FFFE" stroke-width="15"/>
<circle cx="519.5" cy="893.5" r="17" stroke="#F9FFFE" stroke-width="15"/>
<path d="M619 877C619 885.284 612.284 892 604 892C595.716 892 589 885.284 589 877C589 868.716 595.716 862 604 862C612.284 862 619 868.716 619 877Z" fill="#0B274D"/>
<path d="M305 665.5L312.656 659.067L302.847 647.392L296.049 661.042L305 665.5ZM386.5 762.5L378.844 768.933L388.442 780.356L395.36 767.137L386.5 762.5ZM465 612.5L473.214 606.797L463.796 593.233L456.14 607.863L465 612.5ZM544.5 727L536.286 732.703L545.031 745.298L553.031 732.218L544.5 727ZM658.531 559.718C661.413 555.006 659.929 548.851 655.217 545.969C650.506 543.088 644.351 544.571 641.469 549.283L658.531 559.718ZM250.451 797.458L313.951 669.958L296.049 661.042L232.549 788.542L250.451 797.458ZM297.344 671.933L378.844 768.933L394.156 756.067L312.656 659.067L297.344 671.933ZM395.36 767.137L473.86 617.137L456.14 607.863L377.64 757.863L395.36 767.137ZM456.786 618.203L536.286 732.703L552.714 721.297L473.214 606.797L456.786 618.203ZM553.031 732.218L658.531 559.718L641.469 549.283L535.969 721.783L553.031 732.218Z" fill="#0B274D"/>
<path d="M307.5 684L315.137 677.544L305.341 665.957L298.556 679.528L307.5 684ZM389.5 781L381.863 787.456L391.476 798.827L398.365 785.627L389.5 781ZM467 632.5L475.218 626.802L465.79 613.204L458.135 627.873L467 632.5ZM545 745L536.782 750.698L545.444 763.192L553.486 750.29L545 745ZM807.486 342.79C810.408 338.103 808.976 331.935 804.289 329.014C799.603 326.092 793.435 327.524 790.513 332.21L807.486 342.79ZM245.944 829.472L316.444 688.472L298.556 679.528L228.056 820.528L245.944 829.472ZM299.863 690.456L381.863 787.456L397.137 774.544L315.137 677.544L299.863 690.456ZM398.365 785.627L475.865 637.127L458.135 627.873L380.635 776.373L398.365 785.627ZM458.782 638.198L536.782 750.698L553.218 739.302L475.218 626.802L458.782 638.198ZM553.486 750.29L807.486 342.79L790.513 332.21L536.513 739.71L553.486 750.29Z" fill="#F9FFFE"/>
<path d="M806 385L807.931 322.712L751.038 354.889" stroke="#F9FFFE" stroke-width="20" stroke-linecap="round"/>
<circle cx="470.5" cy="616.5" r="31.5" fill="#F9FFFE" stroke="#0B274D" stroke-width="10"/>
<circle cx="649.5" cy="564.5" r="31.5" fill="#0B274D" stroke="#F9FFFE" stroke-width="10"/>
<circle cx="384.5" cy="781.5" r="31.5" fill="#F9FFFE" stroke="#0B274D" stroke-width="10"/>
<path d="M795 527C795 518.716 788.284 512 780 512C771.716 512 765 518.716 765 527L795 527ZM780 651C735.817 651 700 686.817 700 731C700 775.183 735.817 811 780 811C824.183 811 860 775.183 860 731C860 686.817 824.183 651 780 651ZM765 527L765 731L795 731L795 527L765 527Z" fill="#0B274D"/>
<path d="M780 527L780 731" stroke="#0B274D" stroke-width="90" stroke-linecap="round"/>
<path d="M780 527L780 731" stroke="#F9FFFE" stroke-width="40" stroke-linecap="round"/>
<path d="M790 676C790 676 790 544.5 790 533.5C790 533.5 790 520.5 790 526.5" stroke="#15E8DE" stroke-width="20" stroke-linecap="round"/>
<path d="M790 694C790 688.477 785.523 684 780 684C774.477 684 770 688.477 770 694L790 694ZM780 677.667C750.545 677.667 726.667 701.545 726.667 731C726.667 760.455 750.545 784.334 780 784.334C809.455 784.334 833.333 760.455 833.333 731C833.333 701.545 809.455 677.667 780 677.667ZM770 694L770 731L790 731L790 694L770 694Z" fill="#F9FFFE"/>
<path d="M1041.99 548.666L1006.99 549.13" stroke="#0B274D" stroke-width="15" stroke-linecap="round"/>
<path d="M897.2 221.623L872.599 246.886" stroke="#0B274D" stroke-width="15" stroke-linecap="round"/>
<path d="M557.688 86.0482L558.153 121.045" stroke="#0B274D" stroke-width="15" stroke-linecap="round"/>
<path d="M974.348 319.376L944.047 337.41" stroke="#0B274D" stroke-width="15" stroke-linecap="round"/>
<path d="M681.505 100.551L672.831 134.729" stroke="#0B274D" stroke-width="15" stroke-linecap="round"/>
<path d="M376.533 124.14L390.356 156.579" stroke="#0B274D" stroke-width="15" stroke-linecap="round"/>
<path d="M742.315 120.357L729.151 153.069" stroke="#0B274D" stroke-width="15" stroke-linecap="round"/>
<path d="M616.798 88.855L612.886 123.899" stroke="#0B274D" stroke-width="15" stroke-linecap="round"/>
<path d="M937.18 265.395L909.634 287.409" stroke="#0B274D" stroke-width="15" stroke-linecap="round"/>
<path d="M490.812 91.5143L496.199 126.362" stroke="#0B274D" stroke-width="15" stroke-linecap="round"/>
<path d="M846.209 178.14L825.377 206.59" stroke="#0B274D" stroke-width="15" stroke-linecap="round"/>
<path d="M434.018 103.786L443.596 137.722" stroke="#0B274D" stroke-width="15" stroke-linecap="round"/>
<path d="M797.328 148.631L780.104 179.4" stroke="#0B274D" stroke-width="15" stroke-linecap="round"/>
<path d="M1023.5 416.262C1023.5 428.476 1013.49 438.5 1001 438.5C988.505 438.5 978.5 428.476 978.5 416.262C978.5 413.623 979.343 410.04 981.254 405.46C983.131 400.962 985.809 396.035 988.951 390.833C991.877 385.99 995.081 381.11 998.268 376.255C998.499 375.903 998.73 375.551 998.961 375.199C999.737 374.017 1000.51 372.834 1001.28 371.655C1005.57 377.999 1009.92 384.498 1013.75 391.038C1019.97 401.656 1023.5 410.294 1023.5 416.262Z" fill="#15E8DE" stroke="#0B274D" stroke-width="17"/>
<path d="M245.756 252L249 255.232" stroke="#0B274D" stroke-width="15" stroke-linecap="round"/>
<path d="M134 459.023L138.389 460.162" stroke="#0B274D" stroke-width="15" stroke-linecap="round"/>
<path d="M152.906 400.691L157.107 402.42" stroke="#0B274D" stroke-width="15" stroke-linecap="round"/>
<path d="M207.079 300.622L210.732 303.358" stroke="#0B274D" stroke-width="15" stroke-linecap="round"/>
<path d="M177.672 347.75L181.624 350.013" stroke="#0B274D" stroke-width="15" stroke-linecap="round"/>
<path d="M217.015 226.148L228.292 237.058" stroke="#0B274D" stroke-width="15" stroke-linecap="round"/>
<path d="M93.964 448.298L109.222 452.144" stroke="#0B274D" stroke-width="15" stroke-linecap="round"/>
<path d="M114.72 384.891L129.323 390.729" stroke="#0B274D" stroke-width="15" stroke-linecap="round"/>
<path d="M175.19 276.753L187.89 285.991" stroke="#0B274D" stroke-width="15" stroke-linecap="round"/>
<path d="M142.266 327.551L156.002 335.189" stroke="#0B274D" stroke-width="15" stroke-linecap="round"/>
<circle cx="300" cy="185" r="28" fill="#15E8DE" stroke="#0B274D" stroke-width="20"/>
<path d="M230.625 906.121L255.225 880.859" stroke="#0B274D" stroke-width="15" stroke-linecap="square"/>
<path d="M446.59 1026.21L455.264 992.029" stroke="#0B274D" stroke-width="15" stroke-linecap="square"/>
<path d="M153.325 808.028L183.626 789.993" stroke="#0B274D" stroke-width="15" stroke-linecap="square"/>
<path d="M385.785 1006.31L398.949 973.597" stroke="#0B274D" stroke-width="15" stroke-linecap="square"/>
<path d="M124.313 750.889L156.752 737.066" stroke="#0B274D" stroke-width="15" stroke-linecap="square"/>
<path d="M191.142 861.594L218.688 839.58" stroke="#0B274D" stroke-width="15" stroke-linecap="square"/>
<path d="M510.797 1038.39L514.709 1003.35" stroke="#0B274D" stroke-width="15" stroke-linecap="square"/>
<path d="M282.019 948.669L302.851 920.219" stroke="#0B274D" stroke-width="15" stroke-linecap="square"/>
<path d="M91.6875 636.61L126.535 631.223" stroke="#0B274D" stroke-width="15" stroke-linecap="square"/>
<path d="M330.814 979.947L348.038 949.178" stroke="#0B274D" stroke-width="15" stroke-linecap="square"/>
<path d="M104.011 693.299L137.947 683.721" stroke="#0B274D" stroke-width="15" stroke-linecap="square"/>
<path d="M538 1023.45C306.525 1007.17 123.407 830.128 104.318 600" stroke="#F9FFFE" stroke-width="15"/>
<circle cx="104" cy="542" r="28" fill="#15E8DE" stroke="#0B274D" stroke-width="20"/>
<path d="M370.223 403.065C413.723 414.489 413.723 457.065 413.723 457.065C413.723 457.065 436.722 449.091 458.223 466.065C486.722 488.565 462.223 532.065 462.223 532.065H255.223C255.223 532.065 227.722 486.565 255.223 457.065C283.722 429.565 305.723 445.065 305.723 445.065C305.723 445.065 318.723 394.065 370.223 403.065Z" fill="#0B274D"/>
<path d="M370.223 403.065C413.723 414.489 413.723 457.065 413.723 457.065C413.723 457.065 436.722 449.091 458.223 466.065C486.722 488.565 462.223 532.065 462.223 532.065H255.223C255.223 532.065 227.722 486.565 255.223 457.065C283.722 429.565 305.723 445.065 305.723 445.065C305.723 445.065 318.723 394.065 370.223 403.065Z" fill="#0B274D"/>
<path d="M361.521 418.781C403.931 423.023 399.208 475.705 399.208 475.705C399.208 475.705 424.364 460.107 444.991 475.705C463.5 492 451.787 514.56 451.787 514.56H268.991C268.991 514.56 254 489.5 270.918 466.796C293.569 443.811 315.738 472.798 315.738 472.798C315.738 472.798 319.111 414.539 361.521 418.781Z" fill="#F9FFFE"/>
<path d="M1007.22 482.065C1050.72 493.489 1050.72 536.065 1050.72 536.065C1050.72 536.065 1073.72 528.091 1095.22 545.065C1123.72 567.565 1099.22 611.065 1099.22 611.065H892.223C892.223 611.065 864.722 565.565 892.223 536.065C920.722 508.565 942.723 524.065 942.723 524.065C942.723 524.065 955.723 473.065 1007.22 482.065Z" fill="#0B274D"/>
<path d="M1007.22 482.065C1050.72 493.489 1050.72 536.065 1050.72 536.065C1050.72 536.065 1073.72 528.091 1095.22 545.065C1123.72 567.565 1099.22 611.065 1099.22 611.065H892.223C892.223 611.065 864.722 565.565 892.223 536.065C920.722 508.565 942.723 524.065 942.723 524.065C942.723 524.065 955.723 473.065 1007.22 482.065Z" fill="#0B274D"/>
<path d="M998.521 497.781C1040.93 502.023 1036.21 554.705 1036.21 554.705C1036.21 554.705 1061.36 539.107 1081.99 554.705C1100.5 571 1088.79 593.56 1088.79 593.56H905.991C905.991 593.56 891 568.5 907.918 545.796C930.569 522.811 952.738 551.798 952.738 551.798C952.738 551.798 956.111 493.539 998.521 497.781Z" fill="#F9FFFE"/>
<path d="M648.223 126.065C691.723 137.489 691.723 180.065 691.723 180.065C691.723 180.065 714.722 172.091 736.223 189.065C764.722 211.565 740.223 255.065 740.223 255.065H533.223C533.223 255.065 505.722 209.565 533.223 180.065C561.722 152.565 583.723 168.065 583.723 168.065C583.723 168.065 596.723 117.065 648.223 126.065Z" fill="#0B274D"/>
<path d="M648.223 126.065C691.723 137.489 691.723 180.065 691.723 180.065C691.723 180.065 714.722 172.091 736.223 189.065C764.722 211.565 740.223 255.065 740.223 255.065H533.223C533.223 255.065 505.722 209.565 533.223 180.065C561.722 152.565 583.723 168.065 583.723 168.065C583.723 168.065 596.723 117.065 648.223 126.065Z" fill="#0B274D"/>
<path d="M639.521 141.781C681.931 146.023 677.208 198.705 677.208 198.705C677.208 198.705 702.364 183.107 722.991 198.705C741.5 215 729.787 237.56 729.787 237.56H546.991C546.991 237.56 532 212.5 548.918 189.796C571.569 166.811 593.738 195.798 593.738 195.798C593.738 195.798 597.111 137.539 639.521 141.781Z" fill="#F9FFFE"/>
<path d="M234.412 392.5C266.799 330.023 316.428 277.924 377 242.506C410.792 222.746 447.99 208.178 487.5 199.896" stroke="#F9FFFE" stroke-width="10"/>
</svg>
